<?xml version="1.0" encoding="UTF-8" standalone="no"?>
<svg
   xmlns:dc="http://purl.org/dc/elements/1.1/"
   xmlns:cc="http://creativecommons.org/ns#"
   xmlns:rdf="http://www.w3.org/1999/02/22-rdf-syntax-ns#"
   xmlns:svg="http://www.w3.org/2000/svg"
   xmlns="http://www.w3.org/2000/svg"
   xmlns:sodipodi="http://sodipodi.sourceforge.net/DTD/sodipodi-0.dtd"
   xmlns:inkscape="http://www.inkscape.org/namespaces/inkscape"
   version="1.1"
   id="Layer_1"
   x="0px"
   y="0px"
   viewBox="0 0 31.999997 31.999996"
   xml:space="preserve"
   sodipodi:docname="notebook.svg"
   inkscape:version="1.0.1 (1.0.1+r73)"
   width="32"
   height="32"><metadata
   id="metadata55"><rdf:RDF><cc:Work
       rdf:about=""><dc:format>image/svg+xml</dc:format><dc:type
         rdf:resource="http://purl.org/dc/dcmitype/StillImage" /><dc:title></dc:title></cc:Work></rdf:RDF></metadata><defs
   id="defs53" /><sodipodi:namedview
   pagecolor="#ffffff"
   bordercolor="#666666"
   borderopacity="1"
   objecttolerance="10"
   gridtolerance="10"
   guidetolerance="10"
   inkscape:pageopacity="0"
   inkscape:pageshadow="2"
   inkscape:window-width="1366"
   inkscape:window-height="704"
   id="namedview51"
   showgrid="false"
   inkscape:zoom="3.7866134"
   inkscape:cx="63.471769"
   inkscape:cy="51.138418"
   inkscape:window-x="0"
   inkscape:window-y="27"
   inkscape:window-maximized="1"
   inkscape:current-layer="Layer_1"
   units="px"
   width="32mm" />
<path
   style="fill:#f53635;stroke-width:0.0641015"
   d="M 23.906459,-0.02129276 H 3.1846688 L 1.7051036,15.978582 3.1846688,31.978707 H 23.906393 c 1.220665,0 2.219379,-0.949437 2.219379,-2.109875 V 2.0885822 c 6.6e-5,-1.16043746 -0.998648,-2.10987496 -2.219313,-2.10987496 z"
   id="path2" />
<polygon
   style="fill:#ffd691"
   points="476.863,81.807 499.369,135.944 476.863,158.45 454.358,135.944 "
   id="polygon4"
   transform="matrix(0.06574379,0,0,0.0625,-0.60493734,-0.02129276)" />
<path
   style="fill:#f53635;stroke-width:0.0641015"
   d="m 32.225481,29.517144 v 1.406563 c 0,0.58025 -0.49939,1.054938 -1.10969,1.054938 h -0.739815 c -0.610365,0 -1.109689,-0.474751 -1.109689,-1.054938 v -1.406563 l 1.479564,-1.406562 z"
   id="path6" />
<rect
   x="29.265911"
   y="8.4752073"
   style="fill:#fab43e;stroke-width:0.0641015"
   width="2.9591937"
   height="21.041937"
   id="rect8" />
<rect
   x="8.3629112"
   y="4.9017696"
   style="fill:#fdf3c2;stroke-width:0.0641015"
   width="12.583953"
   height="6.3296876"
   id="rect10" />
<rect
   x="0.22545844"
   style="fill:#c40200;stroke-width:0.0641015"
   width="2.9591937"
   height="32"
   id="rect12"
   y="-0.021292757" />
<g
   id="g18"
   transform="matrix(0.06574379,0,0,0.0625,-0.60493734,-0.02129276)">
	<path
   style="fill:#f53635"
   d="m 294.066,120.963 h -123.9 c -4.661,0 -8.44,-3.778 -8.44,-8.44 0,-4.662 3.779,-8.44 8.44,-8.44 h 123.898 c 4.661,0 8.44,3.778 8.44,8.44 0,4.662 -3.777,8.44 -8.438,8.44 z"
   id="path14" />
	<path
   style="fill:#f53635"
   d="m 294.066,154.721 h -123.9 c -4.661,0 -8.44,-3.778 -8.44,-8.44 0,-4.662 3.779,-8.44 8.44,-8.44 h 123.898 c 4.661,0 8.44,3.778 8.44,8.44 0,4.662 -3.777,8.44 -8.438,8.44 z"
   id="path16" />
</g>
<g
   id="g20"
   transform="matrix(0.06574379,0,0,0.0625,-0.60493734,-0.02129276)">
</g>
<g
   id="g22"
   transform="matrix(0.06574379,0,0,0.0625,-0.60493734,-0.02129276)">
</g>
<g
   id="g24"
   transform="matrix(0.06574379,0,0,0.0625,-0.60493734,-0.02129276)">
</g>
<g
   id="g26"
   transform="matrix(0.06574379,0,0,0.0625,-0.60493734,-0.02129276)">
</g>
<g
   id="g28"
   transform="matrix(0.06574379,0,0,0.0625,-0.60493734,-0.02129276)">
</g>
<g
   id="g30"
   transform="matrix(0.06574379,0,0,0.0625,-0.60493734,-0.02129276)">
</g>
<g
   id="g32"
   transform="matrix(0.06574379,0,0,0.0625,-0.60493734,-0.02129276)">
</g>
<g
   id="g34"
   transform="matrix(0.06574379,0,0,0.0625,-0.60493734,-0.02129276)">
</g>
<g
   id="g36"
   transform="matrix(0.06574379,0,0,0.0625,-0.60493734,-0.02129276)">
</g>
<g
   id="g38"
   transform="matrix(0.06574379,0,0,0.0625,-0.60493734,-0.02129276)">
</g>
<g
   id="g40"
   transform="matrix(0.06574379,0,0,0.0625,-0.60493734,-0.02129276)">
</g>
<g
   id="g42"
   transform="matrix(0.06574379,0,0,0.0625,-0.60493734,-0.02129276)">
</g>
<g
   id="g44"
   transform="matrix(0.06574379,0,0,0.0625,-0.60493734,-0.02129276)">
</g>
<g
   id="g46"
   transform="matrix(0.06574379,0,0,0.0625,-0.60493734,-0.02129276)">
</g>
<g
   id="g48"
   transform="matrix(0.06574379,0,0,0.0625,-0.60493734,-0.02129276)">
</g>
</svg>
